<svg xmlns="http://www.w3.org/2000/svg" viewBox="0 0 32 32" width="32" height="32">
  <!-- Sanctuary v2 mark: a lancet window, four leaded panes in the four lamp colours, a candle oculus, brass arch. -->
  <defs>
    <clipPath id="a"><path d="M6 30V14.5A13 13 0 0 1 16 2a13 13 0 0 1 10 12.5V30z"/></clipPath>
  </defs>
  <g clip-path="url(#a)">
    <rect x="0" y="0" width="32" height="32" fill="#1b1030"/>
    <path d="M6 12.5l10-1.2V21L6 22z" fill="#f78955"/><path d="M16 11.3l10 1.2V21.5L16 21z" fill="#4ec491"/>
    <path d="M6 22l10-1v9H6z" fill="#7ad1f7"/><path d="M16 21l10 .5V30H16z" fill="#af80e1"/>
    <circle cx="16" cy="7.6" r="3" fill="#edd9a6"/>
    <path d="M16 11.3V30M6 12.5l10-1.2 10 1.2M6 22l10-1 10 .5" stroke="#0c0716" stroke-width="1.3" fill="none"/>
  </g>
  <path d="M6 30V14.5A13 13 0 0 1 16 2a13 13 0 0 1 10 12.5V30z" fill="none" stroke="#e6ba65" stroke-width="1.6" stroke-linejoin="round"/>
</svg>
