<svg xmlns="http://www.w3.org/2000/svg" viewBox="0 0 100 44" preserveAspectRatio="xMaxYMid meet"><!-- Sanctuary v2: the drone card window (generated by design/warmth/sanctuary-v2/windows.py). --><defs><clipPath id="t0"><path d="M4.00 42.50V30.50A22.80 22.80 0 0 1 16.00 10.42A22.80 22.80 0 0 1 28.00 30.50V42.50Z"/></clipPath><clipPath id="t1"><path d="M36.00 42.50V28.00A26.60 26.60 0 0 1 50.00 4.57A26.60 26.60 0 0 1 64.00 28.00V42.50Z"/></clipPath><clipPath id="t2"><path d="M72.00 42.50V30.50A22.80 22.80 0 0 1 84.00 10.42A22.80 22.80 0 0 1 96.00 30.50V42.50Z"/></clipPath><radialGradient id="g0" cx="0.50" cy="0.62" r=".8"><stop offset="0" stop-color="#607fe5"/><stop offset=".6" stop-color="#4158b2"/><stop offset="1" stop-color="#22317f"/></radialGradient><radialGradient id="g1" cx="0.45" cy="0.35" r=".8"><stop offset="0" stop-color="#5fc393"/><stop offset=".6" stop-color="#3e966e"/><stop offset="1" stop-color="#1d6a4a"/></radialGradient><radialGradient id="g2" cx="0.50" cy="0.62" r=".8"><stop offset="0" stop-color="#efc677"/><stop offset=".6" stop-color="#d0a050"/><stop offset="1" stop-color="#b07a2a"/></radialGradient><radialGradient id="g3" cx="0.45" cy="0.35" r=".8"><stop offset="0" stop-color="#dc5b6b"/><stop offset=".6" stop-color="#b53d50"/><stop offset="1" stop-color="#8e1f36"/></radialGradient><radialGradient id="g4" cx="0.50" cy="0.62" r=".8"><stop offset="0" stop-color="#ad86e8"/><stop offset=".6" stop-color="#815bbb"/><stop offset="1" stop-color="#55308e"/></radialGradient><radialGradient id="g5" cx="0.45" cy="0.35" r=".8"><stop offset="0" stop-color="#607fe5"/><stop offset=".6" stop-color="#4158b2"/><stop offset="1" stop-color="#22317f"/></radialGradient></defs><g clip-path="url(#t0)"><path d="M2 0H30V26L4 30Z" fill="url(#g0)"/><path d="M2 30L30 26V44H2Z" fill="url(#g1)"/></g><g clip-path="url(#t1)"><path d="M34 0H66V29L36 24Z" fill="url(#g2)"/><path d="M34 24L66 29V44H34Z" fill="url(#g3)"/></g><g clip-path="url(#t2)"><path d="M70 0H98V30L72 26Z" fill="url(#g4)"/><path d="M70 26L98 30V44H70Z" fill="url(#g5)"/></g><path d="M4 30L28 26" stroke="#0c0716" stroke-width="1.7"/><path d="M4.00 42.50V30.50A22.80 22.80 0 0 1 16.00 10.42A22.80 22.80 0 0 1 28.00 30.50V42.50Z" fill="none" stroke="#0c0716" stroke-width="2.2" stroke-linejoin="round"/><path d="M36 24L64 29" stroke="#0c0716" stroke-width="1.7"/><path d="M36.00 42.50V28.00A26.60 26.60 0 0 1 50.00 4.57A26.60 26.60 0 0 1 64.00 28.00V42.50Z" fill="none" stroke="#0c0716" stroke-width="2.2" stroke-linejoin="round"/><path d="M72 26L96 30" stroke="#0c0716" stroke-width="1.7"/><path d="M72.00 42.50V30.50A22.80 22.80 0 0 1 84.00 10.42A22.80 22.80 0 0 1 96.00 30.50V42.50Z" fill="none" stroke="#0c0716" stroke-width="2.2" stroke-linejoin="round"/><path d="M33 31V28A29.60 29.60 0 0 1 50 1.22A29.60 29.60 0 0 1 67 28V31" fill="none" stroke="#e6ba65" stroke-width="1.3" stroke-linecap="round" opacity=".9"/><path d="M1 43.3H99" stroke="#e6ba65" stroke-width="1.3" stroke-linecap="round" opacity=".9"/></svg>