<svg xmlns="http://www.w3.org/2000/svg" viewBox="0 0 200 320" preserveAspectRatio="xMidYMid meet"><!-- Sanctuary v2 "Before you play" window, glass layer (generated by windows.py) --><defs><clipPath id="o"><path d="M12.00 320.00V150.00A176.00 176.00 0 0 1 100.00 -2.42A176.00 176.00 0 0 1 188.00 150.00V320.00Z"/></clipPath><radialGradient id="p0" cx="0.44" cy="0.34" r=".8"><stop offset="0" stop-color="#efc677"/><stop offset=".6" stop-color="#d0a050"/><stop offset="1" stop-color="#b07a2a"/></radialGradient><radialGradient id="p1" cx="0.40" cy="0.47" r=".8"><stop offset="0" stop-color="#ed9f5c"/><stop offset=".6" stop-color="#c8783d"/><stop offset="1" stop-color="#a4501f"/></radialGradient><radialGradient id="p2" cx="0.41" cy="0.33" r=".8"><stop offset="0" stop-color="#ed9f5c"/><stop offset=".6" stop-color="#c8783d"/><stop offset="1" stop-color="#a4501f"/></radialGradient><radialGradient id="p3" cx="0.41" cy="0.50" r=".8"><stop offset="0" stop-color="#ad86e8"/><stop offset=".6" stop-color="#815bbb"/><stop offset="1" stop-color="#55308e"/></radialGradient><radialGradient id="p4" cx="0.58" cy="0.44" r=".8"><stop offset="0" stop-color="#efc677"/><stop offset=".6" stop-color="#d0a050"/><stop offset="1" stop-color="#b07a2a"/></radialGradient><radialGradient id="p5" cx="0.59" cy="0.51" r=".8"><stop offset="0" stop-color="#dc5b6b"/><stop offset=".6" stop-color="#b53d50"/><stop offset="1" stop-color="#8e1f36"/></radialGradient><radialGradient id="p6" cx="0.37" cy="0.39" r=".8"><stop offset="0" stop-color="#dc5b6b"/><stop offset=".6" stop-color="#b53d50"/><stop offset="1" stop-color="#8e1f36"/></radialGradient><radialGradient id="p7" cx="0.44" cy="0.59" r=".8"><stop offset="0" stop-color="#efc677"/><stop offset=".6" stop-color="#d0a050"/><stop offset="1" stop-color="#b07a2a"/></radialGradient><radialGradient id="p8" cx="0.50" cy="0.35" r=".8"><stop offset="0" stop-color="#607fe5"/><stop offset=".6" stop-color="#4158b2"/><stop offset="1" stop-color="#22317f"/></radialGradient><radialGradient id="p9" cx="0.36" cy="0.50" r=".8"><stop offset="0" stop-color="#efc677"/><stop offset=".6" stop-color="#d0a050"/><stop offset="1" stop-color="#b07a2a"/></radialGradient><radialGradient id="p10" cx="0.52" cy="0.56" r=".8"><stop offset="0" stop-color="#5fc393"/><stop offset=".6" stop-color="#3e966e"/><stop offset="1" stop-color="#1d6a4a"/></radialGradient><radialGradient id="p11" cx="0.50" cy="0.54" r=".8"><stop offset="0" stop-color="#ad86e8"/><stop offset=".6" stop-color="#815bbb"/><stop offset="1" stop-color="#55308e"/></radialGradient><radialGradient id="p12" cx="0.60" cy="0.58" r=".8"><stop offset="0" stop-color="#607fe5"/><stop offset=".6" stop-color="#4158b2"/><stop offset="1" stop-color="#22317f"/></radialGradient><radialGradient id="p13" cx="0.57" cy="0.39" r=".8"><stop offset="0" stop-color="#607fe5"/><stop offset=".6" stop-color="#4158b2"/><stop offset="1" stop-color="#22317f"/></radialGradient><radialGradient id="p14" cx="0.65" cy="0.55" r=".8"><stop offset="0" stop-color="#ad86e8"/><stop offset=".6" stop-color="#815bbb"/><stop offset="1" stop-color="#55308e"/></radialGradient><radialGradient id="p15" cx="0.64" cy="0.35" r=".8"><stop offset="0" stop-color="#dc5b6b"/><stop offset=".6" stop-color="#b53d50"/><stop offset="1" stop-color="#8e1f36"/></radialGradient><radialGradient id="p16" cx="0.35" cy="0.55" r=".8"><stop offset="0" stop-color="#dc5b6b"/><stop offset=".6" stop-color="#b53d50"/><stop offset="1" stop-color="#8e1f36"/></radialGradient><radialGradient id="p17" cx="0.43" cy="0.30" r=".8"><stop offset="0" stop-color="#607fe5"/><stop offset=".6" stop-color="#4158b2"/><stop offset="1" stop-color="#22317f"/></radialGradient><radialGradient id="p18" cx="0.45" cy="0.34" r=".8"><stop offset="0" stop-color="#ad86e8"/><stop offset=".6" stop-color="#815bbb"/><stop offset="1" stop-color="#55308e"/></radialGradient><radialGradient id="p19" cx="0.64" cy="0.50" r=".8"><stop offset="0" stop-color="#5fc393"/><stop offset=".6" stop-color="#3e966e"/><stop offset="1" stop-color="#1d6a4a"/></radialGradient><radialGradient id="p20" cx="0.59" cy="0.42" r=".8"><stop offset="0" stop-color="#ed9f5c"/><stop offset=".6" stop-color="#c8783d"/><stop offset="1" stop-color="#a4501f"/></radialGradient><radialGradient id="p21" cx="0.47" cy="0.44" r=".8"><stop offset="0" stop-color="#efc677"/><stop offset=".6" stop-color="#d0a050"/><stop offset="1" stop-color="#b07a2a"/></radialGradient><radialGradient id="p22" cx="0.48" cy="0.33" r=".8"><stop offset="0" stop-color="#607fe5"/><stop offset=".6" stop-color="#4158b2"/><stop offset="1" stop-color="#22317f"/></radialGradient><radialGradient id="p23" cx="0.37" cy="0.30" r=".8"><stop offset="0" stop-color="#ad86e8"/><stop offset=".6" stop-color="#815bbb"/><stop offset="1" stop-color="#55308e"/></radialGradient><radialGradient id="p24" cx="0.53" cy="0.32" r=".8"><stop offset="0" stop-color="#dc5b6b"/><stop offset=".6" stop-color="#b53d50"/><stop offset="1" stop-color="#8e1f36"/></radialGradient><radialGradient id="p25" cx="0.53" cy="0.34" r=".8"><stop offset="0" stop-color="#607fe5"/><stop offset=".6" stop-color="#4158b2"/><stop offset="1" stop-color="#22317f"/></radialGradient><radialGradient id="p26" cx="0.49" cy="0.33" r=".8"><stop offset="0" stop-color="#dc5b6b"/><stop offset=".6" stop-color="#b53d50"/><stop offset="1" stop-color="#8e1f36"/></radialGradient><radialGradient id="p27" cx="0.65" cy="0.44" r=".8"><stop offset="0" stop-color="#efc677"/><stop offset=".6" stop-color="#d0a050"/><stop offset="1" stop-color="#b07a2a"/></radialGradient><radialGradient id="p28" cx="0.57" cy="0.52" r=".8"><stop offset="0" stop-color="#607fe5"/><stop offset=".6" stop-color="#4158b2"/><stop offset="1" stop-color="#22317f"/></radialGradient><radialGradient id="p29" cx="0.60" cy="0.35" r=".8"><stop offset="0" stop-color="#efc677"/><stop offset=".6" stop-color="#d0a050"/><stop offset="1" stop-color="#b07a2a"/></radialGradient><radialGradient id="p30" cx="0.50" cy="0.50" r=".8"><stop offset="0" stop-color="#607fe5"/><stop offset=".6" stop-color="#4158b2"/><stop offset="1" stop-color="#22317f"/></radialGradient><radialGradient id="p31" cx="0.50" cy="0.50" r=".8"><stop offset="0" stop-color="#dc5b6b"/><stop offset=".6" stop-color="#b53d50"/><stop offset="1" stop-color="#8e1f36"/></radialGradient><radialGradient id="p32" cx="0.50" cy="0.50" r=".8"><stop offset="0" stop-color="#607fe5"/><stop offset=".6" stop-color="#4158b2"/><stop offset="1" stop-color="#22317f"/></radialGradient><radialGradient id="p33" cx="0.50" cy="0.50" r=".8"><stop offset="0" stop-color="#dc5b6b"/><stop offset=".6" stop-color="#b53d50"/><stop offset="1" stop-color="#8e1f36"/></radialGradient><radialGradient id="p34" cx="0.50" cy="0.50" r=".8"><stop offset="0" stop-color="#607fe5"/><stop offset=".6" stop-color="#4158b2"/><stop offset="1" stop-color="#22317f"/></radialGradient><radialGradient id="p35" cx="0.50" cy="0.50" r=".8"><stop offset="0" stop-color="#dc5b6b"/><stop offset=".6" stop-color="#b53d50"/><stop offset="1" stop-color="#8e1f36"/></radialGradient><radialGradient id="p36" cx="0.45" cy="0.40" r=".8"><stop offset="0" stop-color="#efc677"/><stop offset=".6" stop-color="#d0a050"/><stop offset="1" stop-color="#b07a2a"/></radialGradient></defs><g clip-path="url(#o)"><rect width="200" height="320" fill="#140c24"/></g><circle cx="100" cy="58" r="26" fill="#1b1030"/><circle cx="100.0" cy="45.0" r="10.5" fill="url(#p30)"/><circle cx="111.3" cy="51.5" r="10.5" fill="url(#p31)"/><circle cx="111.3" cy="64.5" r="10.5" fill="url(#p32)"/><circle cx="100.0" cy="71.0" r="10.5" fill="url(#p33)"/><circle cx="88.7" cy="64.5" r="10.5" fill="url(#p34)"/><circle cx="88.7" cy="51.5" r="10.5" fill="url(#p35)"/><circle cx="100" cy="58" r="7.5" fill="url(#p36)"/><clipPath id="c0"><path d="M22.00 320.00V152.00A74.00 74.00 0 0 1 59.00 87.91A74.00 74.00 0 0 1 96.00 152.00V320.00Z"/></clipPath><g clip-path="url(#c0)"><polygon points="20.0,45.9 98.0,45.9 98.0,113.3 20.0,118.0" fill="url(#p0)"/><polygon points="20.0,118.0 49.8,116.2 54.4,144.9 20.0,146.5" fill="url(#p1)"/><polygon points="49.8,116.2 98.0,113.3 98.0,142.9 54.4,144.9" fill="url(#p2)"/><polygon points="20.0,146.5 64.1,144.4 60.5,172.3 20.0,170.6" fill="url(#p3)"/><polygon points="64.1,144.4 98.0,142.9 98.0,173.9 60.5,172.3" fill="url(#p4)"/><polygon points="20.0,170.6 69.2,172.7 55.7,207.2 20.0,210.4" fill="url(#p5)"/><polygon points="69.2,172.7 98.0,173.9 98.0,203.4 55.7,207.2" fill="url(#p6)"/><polygon points="20.0,210.4 58.9,206.9 55.2,232.9 20.0,231.1" fill="url(#p7)"/><polygon points="58.9,206.9 98.0,203.4 98.0,235.2 55.2,232.9" fill="url(#p8)"/><polygon points="20.0,231.1 55.2,232.9 69.4,267.4 20.0,269.7" fill="url(#p9)"/><polygon points="55.2,232.9 98.0,235.2 98.0,266.0 69.4,267.4" fill="url(#p10)"/><polygon points="20.0,269.7 54.5,268.1 63.7,297.1 20.0,293.9" fill="url(#p11)"/><polygon points="54.5,268.1 98.0,266.0 98.0,299.7 63.7,297.1" fill="url(#p12)"/><polygon points="20.0,293.9 58.4,296.7 62.9,322.0 20.0,322.0" fill="url(#p13)"/><polygon points="58.4,296.7 98.0,299.7 98.0,322.0 62.9,322.0" fill="url(#p14)"/></g><clipPath id="c1"><path d="M104.00 320.00V152.00A74.00 74.00 0 0 1 141.00 87.91A74.00 74.00 0 0 1 178.00 152.00V320.00Z"/></clipPath><g clip-path="url(#c1)"><polygon points="102.0,45.9 180.0,45.9 180.0,120.6 102.0,113.5" fill="url(#p15)"/><polygon points="102.0,113.5 133.2,116.3 134.6,143.5 102.0,143.1" fill="url(#p16)"/><polygon points="133.2,116.3 180.0,120.6 180.0,144.2 134.6,143.5" fill="url(#p17)"/><polygon points="102.0,143.1 139.1,143.6 137.9,177.7 102.0,175.5" fill="url(#p18)"/><polygon points="139.1,143.6 180.0,144.2 180.0,180.3 137.9,177.7" fill="url(#p19)"/><polygon points="102.0,175.5 146.8,178.3 140.0,206.9 102.0,205.1" fill="url(#p20)"/><polygon points="146.8,178.3 180.0,180.3 180.0,208.8 140.0,206.9" fill="url(#p21)"/><polygon points="102.0,205.1 138.6,206.8 133.6,237.4 102.0,236.0" fill="url(#p22)"/><polygon points="138.6,206.8 180.0,208.8 180.0,239.4 133.6,237.4" fill="url(#p23)"/><polygon points="102.0,236.0 132.6,237.3 131.4,269.5 102.0,269.3" fill="url(#p24)"/><polygon points="132.6,237.3 180.0,239.4 180.0,269.8 131.4,269.5" fill="url(#p25)"/><polygon points="102.0,269.3 135.1,269.5 137.3,292.2 102.0,291.6" fill="url(#p26)"/><polygon points="135.1,269.5 180.0,269.8 180.0,293.0 137.3,292.2" fill="url(#p27)"/><polygon points="102.0,291.6 140.6,292.3 131.1,322.0 102.0,322.0" fill="url(#p28)"/><polygon points="140.6,292.3 180.0,293.0 180.0,322.0 131.1,322.0" fill="url(#p29)"/></g></svg>